<?xml version="1.0" encoding="UTF-8" standalone="no"?>
<!DOCTYPE svg PUBLIC "-//W3C//DTD SVG 1.1//EN" "http://www.w3.org/Graphics/SVG/1.1/DTD/svg11.dtd">
<svg version="1.1" xmlns="http://www.w3.org/2000/svg" xmlns:xlink="http://www.w3.org/1999/xlink" preserveAspectRatio="xMidYMid meet" viewBox="0 0 942 942" width="942" height="942"><defs><path d="M453.14 707.5C789.42 712.26 931.23 74.97 385.61 8.1C413.79 2.82 442.38 0.11 471.04 0C673.43 0 845.5 127.69 912.14 306.57C942.8 771.31 544.94 627.31 453.14 707.5Z" id="ayZ89eA86"></path><path d="M298.17 33.1C123.61 101.94 0.04 271.48 0.04 470.18C0.2 491.58 1.82 512.93 4.88 534.11C114.44 -16.51 738.57 161.81 703.09 498.06C703.08 498.05 818.73 11.36 298.17 33.1Z" id="asJZNncHK"></path><path d="M512.55 245.74C177.05 196.89 -31.42 809.09 517.02 939.67C501.77 941.16 486.3 942 470.64 942C470.24 942 469.85 941.97 469.46 941.94C469.07 941.91 468.67 941.88 468.28 941.88C447.5 941.63 426.77 940.02 406.21 937.06C400.15 936.24 394.11 935.32 388.09 934.29C368.27 930.95 348.69 926.32 329.47 920.45C327.22 919.75 325.05 918.91 322.88 918.08C322.88 918.08 322.87 918.07 322.86 918.07C322.83 918.06 322.82 918.05 322.82 918.05C321.15 917.41 319.49 916.76 317.79 916.19C301.75 910.69 286.03 904.32 270.69 897.11C270.34 896.94 267.51 895.61 267.16 895.45C263.05 893.55 258.98 891.58 254.94 889.53C237.12 880.45 219.89 870.25 203.37 858.97C202.07 858.06 200.8 857.09 199.53 856.11C199.53 856.11 199.51 856.09 199.47 856.07C199.46 856.06 199.45 856.05 199.45 856.05C198.39 855.24 197.33 854.43 196.24 853.65C180.62 842.46 165.7 830.32 151.57 817.31C150.74 816.54 149.91 815.79 149.07 815.04C149.06 815.03 149.01 814.99 148.93 814.91L148.91 814.91C148.87 814.87 148.85 814.85 148.85 814.84C147.62 813.74 146.39 812.64 145.18 811.5C95.22 763.87 56.33 705.84 31.27 641.53C23.75 109.47 416.29 324.89 512.55 245.74Z" id="c6X3r8mB"></path><path d="M241.09 424.56C187.54 758.62 801.15 972.12 939.85 427.05C941.14 441.29 942.04 455.66 942.04 470.23C942.04 472.01 941.92 473.76 941.79 475.5C941.79 475.51 941.79 475.56 941.79 475.56C941.67 477.12 941.56 478.68 941.54 480.25C941.25 493.04 940.87 505.81 939.6 518.32C921.21 699.25 799.83 849.33 635.1 910.54C110.11 906.33 319.9 521.76 241.09 424.56Z" id="b2qiD8mUE8"></path><path d="M580.7 543.4C566.19 565.07 545.58 581.95 521.48 591.91C497.37 601.87 470.85 604.48 445.26 599.4C419.67 594.32 396.17 581.77 377.71 563.34C339.98 525.7 328.7 469.01 349.14 419.8C359.14 395.73 376.06 375.16 397.75 360.7C419.46 346.24 444.97 338.52 471.05 338.53C506.03 338.53 539.57 352.41 564.32 377.12C589.04 401.8 602.94 435.3 602.94 470.23C602.94 496.27 595.2 521.74 580.7 543.4Z" id="a6d4DaYJZh"></path></defs><g><g><g><use xlink:href="#ayZ89eA86" opacity="1" fill="#56676e" fill-opacity="1"></use><g><use xlink:href="#ayZ89eA86" opacity="1" fill-opacity="0" stroke="#000000" stroke-width="1" stroke-opacity="0"></use></g></g><g><use xlink:href="#asJZNncHK" opacity="1" fill="#56676e" fill-opacity="1"></use><g><use xlink:href="#asJZNncHK" opacity="1" fill-opacity="0" stroke="#000000" stroke-width="1" stroke-opacity="0"></use></g></g><g><use xlink:href="#c6X3r8mB" opacity="1" fill="#56676e" fill-opacity="1"></use><g><use xlink:href="#c6X3r8mB" opacity="1" fill-opacity="0" stroke="#000000" stroke-width="1" stroke-opacity="0"></use></g></g><g><use xlink:href="#b2qiD8mUE8" opacity="1" fill="#56676e" fill-opacity="1"></use><g><use xlink:href="#b2qiD8mUE8" opacity="1" fill-opacity="0" stroke="#000000" stroke-width="1" stroke-opacity="0"></use></g></g><g><use xlink:href="#a6d4DaYJZh" opacity="1" fill="#4e4f50" fill-opacity="1"></use><g><use xlink:href="#a6d4DaYJZh" opacity="1" fill-opacity="0" stroke="#000000" stroke-width="1" stroke-opacity="0"></use></g></g></g></g></svg>